# xmcd
#
# Track frame offsets: 
#        150
#        21322
#        43617
#        66648
#        86126
#        103941
#        121905
#        142259
#        164510
#        186904
#        211175
#        230851
#        253167
#        272964
#        293241
#        313917
#
# Disc length: 4397 seconds
#
# Revision: 0
# Processed by: cddbd v1.5.2PL0 Copyright (c) Steve Scherf et al.
# Submitted via: ExactAudioCopy v1.0b3
#
DISCID=0c112b10
DTITLE=群星 - 试音宝典22号
DYEAR=2012
DGENRE=stereo
TTITLE0=爱的代价·顶级HIFI音效敲击乐
TTITLE1=珍惜·磁性感人的男声演绎配与敲击乐的音效
TTITLE2=往事如昔·动感的女声演绎动态的音效测试
TTITLE3=山茶花·纯厚的男低音演唱低频测试首选
TTITLE4=缘来缘去·磁性感人的女中音演绎中频极之通透
TTITLE5=干杯朋友·动态的音效敲击乐的高潮起伏
TTITLE6=原乡人·音场感极之动态女声演绎通透明亮
TTITLE7=最后一夜·磁性的男声演唱人声的低音低频极之通透
TTITLE8=梅花三弄·音效动态一流发烧女中音测试
TTITLE9=星·醇厚磁性的男声场感音效通透
TTITLE10=雅鲁藏布·发烧的录音效果敲击乐做就出天籁美声
TTITLE11=橄榄树·醉美轻柔感人的男声配与优美的旋律
TTITLE12=别亦难·独特磁性的嗓音女声与敲击乐的完美演绎
TTITLE13=为什么·个性化的男声演绎人声与乐器定位清晰感极强
TTITLE14=雨中飘荡的记忆·当今乐坛公认的女中音测试版本绝对HIFI
TTITLE15=想你想断肠·纯厚完美的男声人声域宽阔通透
EXTD=
EXTT0=
EXTT1=
EXTT2=
EXTT3=
EXTT4=
EXTT5=
EXTT6=
EXTT7=
EXTT8=
EXTT9=
EXTT10=
EXTT11=
EXTT12=
EXTT13=
EXTT14=
EXTT15=
PLAYORDER=
